<svg width="170" height="169" viewBox="0 0 170 169" fill="none" xmlns="http://www.w3.org/2000/svg">
<g id="Ellipse 1">
<g id="Ellipse 1_2">
<mask id="path-1-outside-1_279_542" maskUnits="userSpaceOnUse" x="0" y="0" width="170" height="86" fill="black">
<rect fill="white" width="170" height="86"/>
<path d="M164.738 85C167.092 85 169.011 83.0904 168.892 80.7393C168.406 71.164 166.283 61.7317 162.606 52.8546C158.384 42.6632 152.197 33.4031 144.397 25.603C136.597 17.8029 127.337 11.6155 117.145 7.39412C106.954 3.17272 96.031 1 85 1C73.969 1 63.0459 3.17273 52.8546 7.39412C42.6632 11.6155 33.4031 17.8029 25.603 25.603C17.8029 33.4032 11.6155 42.6632 7.39412 52.8546C3.71708 61.7317 1.59442 71.164 1.10812 80.7393C0.988718 83.0904 2.90839 85 5.2625 85C7.61661 85 9.51245 83.0901 9.64533 80.7397C10.1234 72.2846 12.0216 63.9597 15.2702 56.117C19.0632 46.9599 24.6226 38.6396 31.6311 31.6311C38.6396 24.6226 46.9599 19.0632 56.117 15.2702C65.274 11.4772 75.0885 9.525 85 9.525C94.9115 9.525 104.726 11.4772 113.883 15.2702C123.04 19.0632 131.36 24.6226 138.369 31.6311C145.377 38.6396 150.937 46.9599 154.73 56.117C157.978 63.9597 159.877 72.2846 160.355 80.7397C160.488 83.09 162.383 85 164.738 85Z"/>
</mask>
<path d="M164.738 85C167.092 85 169.011 83.0904 168.892 80.7393C168.406 71.164 166.283 61.7317 162.606 52.8546C158.384 42.6632 152.197 33.4031 144.397 25.603C136.597 17.8029 127.337 11.6155 117.145 7.39412C106.954 3.17272 96.031 1 85 1C73.969 1 63.0459 3.17273 52.8546 7.39412C42.6632 11.6155 33.4031 17.8029 25.603 25.603C17.8029 33.4032 11.6155 42.6632 7.39412 52.8546C3.71708 61.7317 1.59442 71.164 1.10812 80.7393C0.988718 83.0904 2.90839 85 5.2625 85C7.61661 85 9.51245 83.0901 9.64533 80.7397C10.1234 72.2846 12.0216 63.9597 15.2702 56.117C19.0632 46.9599 24.6226 38.6396 31.6311 31.6311C38.6396 24.6226 46.9599 19.0632 56.117 15.2702C65.274 11.4772 75.0885 9.525 85 9.525C94.9115 9.525 104.726 11.4772 113.883 15.2702C123.04 19.0632 131.36 24.6226 138.369 31.6311C145.377 38.6396 150.937 46.9599 154.73 56.117C157.978 63.9597 159.877 72.2846 160.355 80.7397C160.488 83.09 162.383 85 164.738 85Z" fill="url(#paint0_angular_279_542)"/>
<path d="M164.738 85C167.092 85 169.011 83.0904 168.892 80.7393C168.406 71.164 166.283 61.7317 162.606 52.8546C158.384 42.6632 152.197 33.4031 144.397 25.603C136.597 17.8029 127.337 11.6155 117.145 7.39412C106.954 3.17272 96.031 1 85 1C73.969 1 63.0459 3.17273 52.8546 7.39412C42.6632 11.6155 33.4031 17.8029 25.603 25.603C17.8029 33.4032 11.6155 42.6632 7.39412 52.8546C3.71708 61.7317 1.59442 71.164 1.10812 80.7393C0.988718 83.0904 2.90839 85 5.2625 85C7.61661 85 9.51245 83.0901 9.64533 80.7397C10.1234 72.2846 12.0216 63.9597 15.2702 56.117C19.0632 46.9599 24.6226 38.6396 31.6311 31.6311C38.6396 24.6226 46.9599 19.0632 56.117 15.2702C65.274 11.4772 75.0885 9.525 85 9.525C94.9115 9.525 104.726 11.4772 113.883 15.2702C123.04 19.0632 131.36 24.6226 138.369 31.6311C145.377 38.6396 150.937 46.9599 154.73 56.117C157.978 63.9597 159.877 72.2846 160.355 80.7397C160.488 83.09 162.383 85 164.738 85Z" stroke="white" stroke-width="2" mask="url(#path-1-outside-1_279_542)"/>
</g>
</g>
<defs>
<radialGradient id="paint0_angular_279_542" cx="0" cy="0" r="1" gradientUnits="userSpaceOnUse" gradientTransform="translate(85 85) scale(74.5)">
<stop offset="0.000988559" stop-color="#56FF5F"/>
<stop offset="0.501085" stop-color="#56FFF0"/>
</radialGradient>
</defs>
</svg>
